<?xml version="1.0" encoding="UTF-8"?>
<svg xmlns="http://www.w3.org/2000/svg" xmlns:xlink="http://www.w3.org/1999/xlink" viewBox="0 0 96 96" width="96px" height="96px">
<g id="surface33056596">
<path style=" stroke:none;fill-rule:nonzero;fill:rgb(80.000001%,80.000001%,80.000001%);fill-opacity:1;" d="M 46.664062 8.019531 C 26.480469 8.679688 9.496094 25.003906 8.101562 45.152344 C 6.625 66.46875 21.867188 84.480469 42.023438 87.507812 L 42.023438 58.601562 L 35.566406 58.601562 C 32.664062 58.601562 30.3125 56.246094 30.3125 53.34375 C 30.3125 50.441406 32.664062 48.089844 35.566406 48.089844 L 42.019531 48.089844 L 42.019531 41.09375 C 42.019531 29.507812 47.664062 24.425781 57.292969 24.425781 C 58.71875 24.425781 59.941406 24.457031 60.976562 24.507812 C 63.519531 24.632812 65.492188 26.753906 65.492188 29.300781 C 65.492188 31.953125 63.34375 34.101562 60.691406 34.101562 L 58.925781 34.101562 C 54.835938 34.101562 53.40625 37.976562 53.40625 42.34375 L 53.40625 48.09375 L 60.886719 48.09375 C 63.253906 48.09375 65.058594 50.199219 64.699219 52.535156 L 64.269531 55.339844 C 63.976562 57.21875 62.359375 58.609375 60.457031 58.609375 L 53.40625 58.609375 L 53.40625 87.597656 C 72.941406 84.945312 88 68.246094 88 48 C 88 25.464844 69.363281 7.285156 46.664062 8.019531 Z M 46.664062 8.019531 "/>
</g>
</svg>
